<mxfile host="app.diagrams.net" modified="2024-06-12T10:15:51.250Z" agent="Mozilla/5.0 (Windows NT 10.0; Win64; x64) AppleWebKit/537.36 (KHTML, like Gecko) Chrome/123.0.0.0 Safari/537.36 OPR/109.0.0.0" etag="YL2QBosmNV8lt40ofFf-" version="24.5.3" type="github">
  <diagram name="Page-1" id="nqtYJb-C8pLSouhX_ml8">
    <mxGraphModel dx="1041" dy="518" grid="1" gridSize="10" guides="1" tooltips="1" connect="1" arrows="1" fold="1" page="1" pageScale="1" pageWidth="850" pageHeight="1100" math="0" shadow="0">
      <root>
        <mxCell id="0" />
        <mxCell id="1" parent="0" />
        <mxCell id="jxTVoxvYUh4I0hS91gZT-35" value="&lt;div&gt;&lt;br&gt;&lt;/div&gt;&lt;div&gt;&lt;br&gt;&lt;/div&gt;&lt;div&gt;&lt;br&gt;&lt;/div&gt;&lt;div&gt;&lt;br&gt;&lt;/div&gt;&lt;div&gt;&lt;br&gt;&lt;/div&gt;&lt;div&gt;&lt;br&gt;&lt;/div&gt;&lt;div&gt;&lt;br&gt;&lt;/div&gt;&lt;div&gt;&lt;br&gt;&lt;/div&gt;&lt;div&gt;&lt;br&gt;&lt;/div&gt;&lt;div&gt;&lt;br&gt;&lt;/div&gt;&lt;div&gt;&lt;br&gt;&lt;/div&gt;&lt;div&gt;&lt;br&gt;&lt;/div&gt;&lt;div&gt;&lt;br&gt;&lt;/div&gt;&lt;div&gt;&lt;br&gt;&lt;/div&gt;&lt;div&gt;&lt;br&gt;&lt;/div&gt;&lt;div&gt;&lt;br&gt;&lt;/div&gt;&lt;div&gt;&lt;br&gt;&lt;/div&gt;&lt;div&gt;&lt;br&gt;&lt;/div&gt;&lt;div&gt;&lt;br&gt;&lt;/div&gt;&lt;div&gt;&lt;span style=&quot;background-color: initial;&quot;&gt;React,js as Frontend&lt;/span&gt;&lt;br&gt;&lt;/div&gt;" style="rounded=1;whiteSpace=wrap;html=1;" vertex="1" parent="1">
          <mxGeometry x="140" y="99" width="230" height="366" as="geometry" />
        </mxCell>
        <mxCell id="jxTVoxvYUh4I0hS91gZT-1" value="User Prompt&amp;nbsp;&lt;div&gt;(includes preferred ingredients / recipe /&amp;nbsp;&lt;/div&gt;&lt;div&gt;dietary restriction)&lt;/div&gt;" style="rounded=1;whiteSpace=wrap;html=1;" vertex="1" parent="1">
          <mxGeometry x="175" y="140" width="150" height="80" as="geometry" />
        </mxCell>
        <mxCell id="jxTVoxvYUh4I0hS91gZT-2" value="User" style="shape=umlActor;verticalLabelPosition=bottom;verticalAlign=top;html=1;outlineConnect=0;" vertex="1" parent="1">
          <mxGeometry x="30" y="150" width="30" height="60" as="geometry" />
        </mxCell>
        <mxCell id="jxTVoxvYUh4I0hS91gZT-5" value="" style="endArrow=classic;html=1;rounded=0;" edge="1" parent="1">
          <mxGeometry width="50" height="50" relative="1" as="geometry">
            <mxPoint x="80" y="180" as="sourcePoint" />
            <mxPoint x="150" y="180" as="targetPoint" />
          </mxGeometry>
        </mxCell>
        <mxCell id="jxTVoxvYUh4I0hS91gZT-6" value="NER with spaCy" style="rounded=1;whiteSpace=wrap;html=1;" vertex="1" parent="1">
          <mxGeometry x="690" y="140" width="150" height="80" as="geometry" />
        </mxCell>
        <mxCell id="jxTVoxvYUh4I0hS91gZT-37" style="edgeStyle=orthogonalEdgeStyle;rounded=0;orthogonalLoop=1;jettySize=auto;html=1;exitX=0;exitY=0.5;exitDx=0;exitDy=0;" edge="1" parent="1" source="jxTVoxvYUh4I0hS91gZT-10" target="jxTVoxvYUh4I0hS91gZT-15">
          <mxGeometry relative="1" as="geometry" />
        </mxCell>
        <mxCell id="jxTVoxvYUh4I0hS91gZT-40" style="edgeStyle=orthogonalEdgeStyle;rounded=0;orthogonalLoop=1;jettySize=auto;html=1;exitX=0.75;exitY=0;exitDx=0;exitDy=0;entryX=0.75;entryY=1;entryDx=0;entryDy=0;" edge="1" parent="1" source="jxTVoxvYUh4I0hS91gZT-10" target="jxTVoxvYUh4I0hS91gZT-11">
          <mxGeometry relative="1" as="geometry" />
        </mxCell>
        <mxCell id="jxTVoxvYUh4I0hS91gZT-10" value="MCTS" style="rounded=1;whiteSpace=wrap;html=1;" vertex="1" parent="1">
          <mxGeometry x="690" y="370" width="150" height="80" as="geometry" />
        </mxCell>
        <mxCell id="jxTVoxvYUh4I0hS91gZT-38" style="edgeStyle=orthogonalEdgeStyle;rounded=0;orthogonalLoop=1;jettySize=auto;html=1;exitX=0;exitY=0.5;exitDx=0;exitDy=0;entryX=1;entryY=0.25;entryDx=0;entryDy=0;" edge="1" parent="1" source="jxTVoxvYUh4I0hS91gZT-11" target="jxTVoxvYUh4I0hS91gZT-15">
          <mxGeometry relative="1" as="geometry" />
        </mxCell>
        <mxCell id="jxTVoxvYUh4I0hS91gZT-39" style="edgeStyle=orthogonalEdgeStyle;rounded=0;orthogonalLoop=1;jettySize=auto;html=1;exitX=0.5;exitY=1;exitDx=0;exitDy=0;entryX=0.5;entryY=0;entryDx=0;entryDy=0;" edge="1" parent="1" source="jxTVoxvYUh4I0hS91gZT-11" target="jxTVoxvYUh4I0hS91gZT-10">
          <mxGeometry relative="1" as="geometry" />
        </mxCell>
        <mxCell id="jxTVoxvYUh4I0hS91gZT-11" value="Knowledge Graph" style="rounded=1;whiteSpace=wrap;html=1;" vertex="1" parent="1">
          <mxGeometry x="690" y="250" width="150" height="80" as="geometry" />
        </mxCell>
        <mxCell id="jxTVoxvYUh4I0hS91gZT-36" style="edgeStyle=orthogonalEdgeStyle;rounded=0;orthogonalLoop=1;jettySize=auto;html=1;exitX=0.5;exitY=0;exitDx=0;exitDy=0;entryX=0.5;entryY=1;entryDx=0;entryDy=0;" edge="1" parent="1" source="jxTVoxvYUh4I0hS91gZT-15" target="jxTVoxvYUh4I0hS91gZT-19">
          <mxGeometry relative="1" as="geometry" />
        </mxCell>
        <mxCell id="jxTVoxvYUh4I0hS91gZT-42" style="edgeStyle=orthogonalEdgeStyle;rounded=0;orthogonalLoop=1;jettySize=auto;html=1;exitX=1;exitY=0.5;exitDx=0;exitDy=0;" edge="1" parent="1" source="jxTVoxvYUh4I0hS91gZT-15" target="jxTVoxvYUh4I0hS91gZT-10">
          <mxGeometry relative="1" as="geometry" />
        </mxCell>
        <mxCell id="jxTVoxvYUh4I0hS91gZT-15" value="LLM" style="rounded=1;whiteSpace=wrap;html=1;" vertex="1" parent="1">
          <mxGeometry x="425" y="360" width="150" height="70" as="geometry" />
        </mxCell>
        <mxCell id="jxTVoxvYUh4I0hS91gZT-19" value="Flask as Backend" style="rounded=1;whiteSpace=wrap;html=1;" vertex="1" parent="1">
          <mxGeometry x="425" y="99" width="150" height="221" as="geometry" />
        </mxCell>
        <mxCell id="jxTVoxvYUh4I0hS91gZT-21" value="" style="endArrow=classic;html=1;rounded=0;entryX=0;entryY=0.5;entryDx=0;entryDy=0;exitX=1;exitY=0.25;exitDx=0;exitDy=0;" edge="1" parent="1" source="jxTVoxvYUh4I0hS91gZT-19" target="jxTVoxvYUh4I0hS91gZT-6">
          <mxGeometry width="50" height="50" relative="1" as="geometry">
            <mxPoint x="785" y="230" as="sourcePoint" />
            <mxPoint x="785" y="330" as="targetPoint" />
          </mxGeometry>
        </mxCell>
        <mxCell id="jxTVoxvYUh4I0hS91gZT-22" value="" style="endArrow=classic;html=1;rounded=0;exitX=1;exitY=0.5;exitDx=0;exitDy=0;entryX=0;entryY=0.25;entryDx=0;entryDy=0;" edge="1" parent="1" target="jxTVoxvYUh4I0hS91gZT-19">
          <mxGeometry width="50" height="50" relative="1" as="geometry">
            <mxPoint x="325" y="179.55" as="sourcePoint" />
            <mxPoint x="420" y="180" as="targetPoint" />
          </mxGeometry>
        </mxCell>
        <mxCell id="jxTVoxvYUh4I0hS91gZT-30" value="Recipe output&lt;div&gt;(includes title, ingredients, steps, nutritional value, cooking time)&lt;/div&gt;" style="rounded=1;whiteSpace=wrap;html=1;" vertex="1" parent="1">
          <mxGeometry x="175" y="300" width="150" height="80" as="geometry" />
        </mxCell>
        <mxCell id="jxTVoxvYUh4I0hS91gZT-32" value="" style="endArrow=classic;html=1;rounded=0;entryX=1;entryY=0.5;entryDx=0;entryDy=0;exitX=-0.006;exitY=0.62;exitDx=0;exitDy=0;exitPerimeter=0;" edge="1" parent="1" source="jxTVoxvYUh4I0hS91gZT-19" target="jxTVoxvYUh4I0hS91gZT-30">
          <mxGeometry width="50" height="50" relative="1" as="geometry">
            <mxPoint x="420" y="320" as="sourcePoint" />
            <mxPoint x="435" y="191" as="targetPoint" />
          </mxGeometry>
        </mxCell>
        <mxCell id="jxTVoxvYUh4I0hS91gZT-41" style="edgeStyle=orthogonalEdgeStyle;rounded=0;orthogonalLoop=1;jettySize=auto;html=1;exitX=1;exitY=0.25;exitDx=0;exitDy=0;entryX=0.001;entryY=0.406;entryDx=0;entryDy=0;entryPerimeter=0;" edge="1" parent="1" source="jxTVoxvYUh4I0hS91gZT-15" target="jxTVoxvYUh4I0hS91gZT-11">
          <mxGeometry relative="1" as="geometry" />
        </mxCell>
      </root>
    </mxGraphModel>
  </diagram>
</mxfile>
